<?xml version="1.0" encoding="UTF-8"?>
<svg id="Layer_1" xmlns="http://www.w3.org/2000/svg" version="1.1" viewBox="0 0 80 100">
  <!-- Generator: Adobe Illustrator 29.1.0, SVG Export Plug-In . SVG Version: 2.1.0 Build 142)  -->
  <defs>
    <style>
      .st0, .st1 {
        fill: none;
        stroke: #040000;
        stroke-miterlimit: 10;
      }

      .st1 {
        stroke-linecap: round;
        stroke-width: 3px;
      }

      .st2 {
        fill: #040000;
      }
    </style>
  </defs>
  <g>
    <line class="st1" x1="3.5" y1="5.1" x2="30.3" y2="5.1"/>
    <line class="st1" x1="10.2" y1="12.8" x2="22.9" y2="12.8"/>
    <line class="st1" x1="16.6" y1="26.7" x2="27" y2="26.7"/>
    <line class="st1" x1="35" y1="36.2" x2="8.5" y2="36.2"/>
    <line class="st1" x1="38.8" y1="49.7" x2="3.7" y2="49.7"/>
    <line class="st1" x1="35" y1="62.8" x2="7.9" y2="62.8"/>
    <line class="st1" x1="27.4" y1="72.7" x2="16.3" y2="72.7"/>
    <line class="st1" x1="10.2" y1="86.3" x2="21.8" y2="86.3"/>
    <line class="st1" x1="3.5" y1="94.1" x2="29.9" y2="94.1"/>
  </g>
  <line class="st0" x1="49.9" y1="77.7" x2="51.1" y2="67.1"/>
  <line class="st0" x1="43.4" y1="45.7" x2="54.7" y2="35.9"/>
  <line class="st0" x1="52" y1="22.2" x2="55.7" y2="29.3"/>
  <line class="st0" x1="69.6" y1="28.7" x2="61.8" y2="31.7"/>
  <line class="st0" x1="62.3" y1="54.2" x2="54.2" y2="61.2"/>
  <line class="st0" x1="59.5" y1="37.1" x2="63.8" y2="46.7"/>
  <line class="st0" x1="45.6" y1="21.7" x2="38.4" y2="31.6"/>
  <line class="st0" x1="38.2" y1="67.8" x2="49.2" y2="84.6"/>
  <line class="st0" x1="55.3" y1="19.1" x2="69.4" y2="24.5"/>
  <line class="st0" x1="54.6" y1="81.4" x2="69.2" y2="75.2"/>
  <line class="st0" x1="43.2" y1="54.1" x2="49.2" y2="60.9"/>
  <line class="st0" x1="72.7" y1="32.1" x2="67.7" y2="46.7"/>
  <line class="st0" x1="72.6" y1="67.3" x2="67.8" y2="55.8"/>
  <circle class="st2" cx="38.8" cy="49.8" r="5.8" transform="translate(-18.6 76.1) rotate(-76.7)"/>
  <circle class="st2" cx="35" cy="62.8" r="5"/>
  <path class="st2" d="M30,36.2c0-2.8,2.2-5,5-5s5,2.2,5,5-2.2,5-5,5-5-2.2-5-5Z"/>
  <path class="st2" d="M22.9,72.7c0-2.5,2-4.5,4.5-4.5s4.5,2,4.5,4.5-2,4.5-4.5,4.5-4.5-2-4.5-4.5Z"/>
  <path class="st2" d="M22.4,26.7c0-2.5,2-4.5,4.5-4.5s4.5,2,4.5,4.5-2,4.5-4.5,4.5-4.5-2-4.5-4.5Z"/>
  <path class="st2" d="M14.5,79.2c0-2.3,1.8-4.1,4.1-4.1s4.1,1.8,4.1,4.1-1.8,4.1-4.1,4.1-4.1-1.8-4.1-4.1Z"/>
  <circle class="st2" cx="18.5" cy="20.1" r="4.1"/>
  <circle class="st2" cx="10.2" cy="86.3" r="3.5"/>
  <circle class="st2" cx="10.2" cy="12.8" r="3.5"/>
  <path class="st2" d="M.3,94.1c0-1.7,1.4-3.2,3.2-3.2s3.2,1.4,3.2,3.2-1.4,3.2-3.2,3.2-3.2-1.4-3.2-3.2Z"/>
  <path class="st2" d="M.3,5.1C.3,3.4,1.8,2,3.5,2s3.2,1.4,3.2,3.2-1.4,3.2-3.2,3.2S.3,6.9.3,5.1Z"/>
  <g>
    <path class="st2" d="M44.2,16.7c0-2.8,2.2-5,5-5s5,2.2,5,5-2.2,5-5,5-5-2.2-5-5Z"/>
    <path class="st2" d="M44.2,83.7c0-2.8,2.2-5,5-5s5,2.2,5,5-2.2,5-5,5-5-2.2-5-5Z"/>
    <path class="st2" d="M69.9,26.7c0-2.8,2.2-5,5-5s5,2.2,5,5-2.2,5-5,5-5-2.2-5-5Z"/>
    <path class="st2" d="M69.9,72.7c0-2.8,2.2-5,5-5s5,2.2,5,5-2.2,5-5,5-5-2.2-5-5Z"/>
    <circle class="st2" cx="65.8" cy="51.2" r="4.1"/>
    <circle class="st2" cx="57.7" cy="33.2" r="3.5"/>
    <circle class="st2" cx="51.5" cy="63.5" r="2.7"/>
  </g>
</svg>