<?xml version="1.0" encoding="UTF-8"?>
<svg id="Layer_1" xmlns="http://www.w3.org/2000/svg" version="1.1" viewBox="0 0 80 100">
  <!-- Generator: Adobe Illustrator 29.1.0, SVG Export Plug-In . SVG Version: 2.1.0 Build 142)  -->
  <defs>
    <style>
      .st0 {
        stroke: #fcfdfd;
        stroke-width: 2px;
      }

      .st0, .st1, .st2 {
        stroke-miterlimit: 10;
      }

      .st0, .st3 {
        fill: #040000;
      }

      .st1, .st2 {
        fill: none;
        stroke: #040000;
      }

      .st2 {
        stroke-linecap: round;
        stroke-width: 3px;
      }

      .st4 {
        fill: #fff;
      }
    </style>
  </defs>
  <g>
    <line class="st2" x1="3.1" y1="4.7" x2="30.4" y2="4.7"/>
    <line class="st2" x1="9.9" y1="12.6" x2="22.9" y2="12.6"/>
    <line class="st2" x1="16.5" y1="26.7" x2="27" y2="26.7"/>
    <line class="st2" x1="35.2" y1="36.4" x2="8.2" y2="36.4"/>
    <line class="st2" x1="39" y1="50.2" x2="3.3" y2="50.2"/>
    <line class="st2" x1="35.2" y1="63.5" x2="7.5" y2="63.5"/>
    <line class="st2" x1="27.4" y1="73.7" x2="16.1" y2="73.7"/>
    <line class="st2" x1="9.9" y1="87.5" x2="21.8" y2="87.5"/>
    <line class="st2" x1="3.1" y1="95.4" x2="30.1" y2="95.4"/>
  </g>
  <g>
    <line class="st1" x1="49.7" y1="84.8" x2="52.1" y2="64.3"/>
    <line class="st1" x1="39" y1="50.2" x2="58.4" y2="33.4"/>
    <line class="st1" x1="49.7" y1="16.5" x2="58.4" y2="33.4"/>
    <line class="st1" x1="75.9" y1="26.7" x2="58.4" y2="33.4"/>
    <line class="st1" x1="66.7" y1="51.7" x2="52.1" y2="64.3"/>
    <line class="st1" x1="58.4" y1="33.4" x2="66.7" y2="51.7"/>
    <line class="st1" x1="49.7" y1="16.5" x2="35.2" y2="36.4"/>
    <line class="st1" x1="35.2" y1="63.5" x2="49.7" y2="85.8"/>
    <line class="st1" x1="49.7" y1="16.5" x2="75.9" y2="26.7"/>
    <line class="st1" x1="49.7" y1="84.8" x2="75.9" y2="73.7"/>
    <line class="st1" x1="39" y1="49.5" x2="52.1" y2="64.3"/>
    <line class="st1" x1="39" y1="50.2" x2="35.2" y2="36.4"/>
    <line class="st1" x1="35.2" y1="63.5" x2="39" y2="51"/>
    <line class="st1" x1="77.2" y1="26.7" x2="66.7" y2="51.7"/>
    <line class="st1" x1="75.9" y1="73.7" x2="66.7" y2="51.7"/>
  </g>
  <circle class="st3" cx="39" cy="50.3" r="6" transform="translate(-18.9 76.7) rotate(-76.7)"/>
  <path class="st4" d="M39,56.6c-3.5,0-6.3-2.8-6.3-6.3s2.8-6.3,6.3-6.3,6.3,2.8,6.3,6.3-2.8,6.3-6.3,6.3ZM39,44.7c-3.1,0-5.6,2.5-5.6,5.6s2.5,5.6,5.6,5.6,5.6-2.5,5.6-5.6-2.5-5.6-5.6-5.6Z"/>
  <circle class="st3" cx="35.2" cy="63.5" r="5.1"/>
  <path class="st4" d="M35.2,69c-3,0-5.5-2.5-5.5-5.5s2.5-5.5,5.5-5.5,5.5,2.5,5.5,5.5-2.5,5.5-5.5,5.5ZM35.2,58.8c-2.6,0-4.7,2.1-4.7,4.7s2.1,4.7,4.7,4.7,4.7-2.1,4.7-4.7-2.1-4.7-4.7-4.7Z"/>
  <path class="st3" d="M30.1,36.4c0-2.8,2.3-5.1,5.1-5.1s5.1,2.3,5.1,5.1-2.3,5.1-5.1,5.1-5.1-2.3-5.1-5.1Z"/>
  <path class="st4" d="M35.2,41.9c-3,0-5.5-2.5-5.5-5.5s2.5-5.5,5.5-5.5,5.5,2.5,5.5,5.5-2.5,5.5-5.5,5.5ZM35.2,31.7c-2.6,0-4.7,2.1-4.7,4.7s2.1,4.7,4.7,4.7,4.7-2.1,4.7-4.7-2.1-4.7-4.7-4.7Z"/>
  <path class="st3" d="M22.8,73.7c0-2.5,2.1-4.6,4.6-4.6s4.6,2.1,4.6,4.6-2.1,4.6-4.6,4.6-4.6-2.1-4.6-4.6Z"/>
  <path class="st4" d="M27.4,78.6c-2.7,0-5-2.2-5-5s2.2-5,5-5,5,2.2,5,5-2.2,5-5,5ZM27.4,69.5c-2.3,0-4.2,1.9-4.2,4.2s1.9,4.2,4.2,4.2,4.2-1.9,4.2-4.2-1.9-4.2-4.2-4.2Z"/>
  <path class="st3" d="M22.4,26.7c0-2.5,2.1-4.6,4.6-4.6s4.6,2.1,4.6,4.6-2.1,4.6-4.6,4.6-4.6-2.1-4.6-4.6Z"/>
  <path class="st4" d="M27,31.7c-2.7,0-5-2.2-5-5s2.2-5,5-5,5,2.2,5,5-2.2,5-5,5ZM27,22.5c-2.3,0-4.2,1.9-4.2,4.2s1.9,4.2,4.2,4.2,4.2-1.9,4.2-4.2-1.9-4.2-4.2-4.2Z"/>
  <path class="st3" d="M14.2,80.3c0-2.3,1.9-4.2,4.2-4.2s4.2,1.9,4.2,4.2-1.9,4.2-4.2,4.2-4.2-1.9-4.2-4.2Z"/>
  <path class="st4" d="M18.4,84.8c-2.5,0-4.5-2-4.5-4.5s2-4.5,4.5-4.5,4.5,2,4.5,4.5-2,4.5-4.5,4.5ZM18.4,76.5c-2.1,0-3.8,1.7-3.8,3.8s1.7,3.8,3.8,3.8,3.8-1.7,3.8-3.8-1.7-3.8-3.8-3.8Z"/>
  <circle class="st3" cx="18.4" cy="20" r="4.2"/>
  <path class="st4" d="M18.4,24.5c-2.5,0-4.5-2-4.5-4.5s2-4.5,4.5-4.5,4.5,2,4.5,4.5-2,4.5-4.5,4.5ZM18.4,16.2c-2.1,0-3.8,1.7-3.8,3.8s1.7,3.8,3.8,3.8,3.8-1.7,3.8-3.8-1.7-3.8-3.8-3.8Z"/>
  <circle class="st3" cx="9.9" cy="87.5" r="3.6"/>
  <path class="st4" d="M9.9,91.5c-2.2,0-3.9-1.8-3.9-3.9s1.8-3.9,3.9-3.9,3.9,1.8,3.9,3.9-1.8,3.9-3.9,3.9ZM9.9,84.3c-1.8,0-3.2,1.4-3.2,3.2s1.4,3.2,3.2,3.2,3.2-1.4,3.2-3.2-1.4-3.2-3.2-3.2Z"/>
  <circle class="st3" cx="9.9" cy="12.6" r="3.6"/>
  <path class="st4" d="M9.9,16.5c-2.2,0-3.9-1.8-3.9-3.9s1.8-3.9,3.9-3.9,3.9,1.8,3.9,3.9-1.8,3.9-3.9,3.9ZM9.9,9.4c-1.8,0-3.2,1.4-3.2,3.2s1.4,3.2,3.2,3.2,3.2-1.4,3.2-3.2-1.4-3.2-3.2-3.2Z"/>
  <path class="st3" d="M-.1,95.4c0-1.8,1.4-3.2,3.2-3.2s3.2,1.4,3.2,3.2-1.4,3.2-3.2,3.2-3.2-1.4-3.2-3.2Z"/>
  <path class="st4" d="M3.1,99c-2,0-3.6-1.6-3.6-3.6s1.6-3.6,3.6-3.6,3.6,1.6,3.6,3.6-1.6,3.6-3.6,3.6ZM3.1,92.6c-1.6,0-2.8,1.3-2.8,2.8s1.3,2.8,2.8,2.8,2.8-1.3,2.8-2.8-1.3-2.8-2.8-2.8Z"/>
  <path class="st3" d="M-.1,4.7C-.1,2.9,1.3,1.5,3.1,1.5s3.2,1.4,3.2,3.2-1.4,3.2-3.2,3.2S-.1,6.5-.1,4.7Z"/>
  <path class="st4" d="M3.1,8.3c-2,0-3.6-1.6-3.6-3.6S1.1,1.1,3.1,1.1s3.6,1.6,3.6,3.6-1.6,3.6-3.6,3.6ZM3.1,1.8C1.5,1.8.2,3.1.2,4.7s1.3,2.8,2.8,2.8,2.8-1.3,2.8-2.8-1.3-2.8-2.8-2.8Z"/>
  <g>
    <path class="st0" d="M44.6,16.5c0-2.8,2.3-5.1,5.1-5.1s5.1,2.3,5.1,5.1-2.3,5.1-5.1,5.1-5.1-2.3-5.1-5.1Z"/>
    <path class="st0" d="M44.6,84.8c0-2.8,2.3-5.1,5.1-5.1s5.1,2.3,5.1,5.1-2.3,5.1-5.1,5.1-5.1-2.3-5.1-5.1Z"/>
    <path class="st0" d="M70.8,26.7c0-2.8,2.3-5.1,5.1-5.1s5.1,2.3,5.1,5.1-2.3,5.1-5.1,5.1-5.1-2.3-5.1-5.1Z"/>
    <path class="st0" d="M70.8,73.7c0-2.8,2.3-5.1,5.1-5.1s5.1,2.3,5.1,5.1-2.3,5.1-5.1,5.1-5.1-2.3-5.1-5.1Z"/>
    <circle class="st0" cx="66.7" cy="51.7" r="4.2"/>
    <circle class="st0" cx="58.4" cy="33.4" r="3.6"/>
    <circle class="st0" cx="52.1" cy="64.3" r="2.7"/>
  </g>
</svg>