<?xml version="1.0" encoding="UTF-8"?>
<svg id="Layer_1" xmlns="http://www.w3.org/2000/svg" version="1.1" viewBox="0 0 80 100">
  <!-- Generator: Adobe Illustrator 29.1.0, SVG Export Plug-In . SVG Version: 2.1.0 Build 142)  -->
  <defs>
    <style>
      .st0 {
        fill: none;
        stroke: #040000;
        stroke-miterlimit: 10;
      }

      .st1 {
        fill: #040000;
      }

      .st2 {
        fill: #2c2b30;
      }

      .st3 {
        fill: #1b75bc;
      }
    </style>
  </defs>
  <g>
    <line class="st0" x1="49.9" y1="77.7" x2="51.1" y2="67.1"/>
    <line class="st0" x1="45.5" y1="45.8" x2="54.7" y2="35.9"/>
    <line class="st0" x1="52" y1="22.2" x2="55.7" y2="29.3"/>
    <line class="st0" x1="69.6" y1="28.7" x2="61.8" y2="31.7"/>
    <line class="st0" x1="62.3" y1="54.2" x2="54.2" y2="61.2"/>
    <line class="st0" x1="59.5" y1="37.1" x2="63.8" y2="46.7"/>
    <line class="st0" x1="45.6" y1="21.7" x2="40.8" y2="33.3"/>
    <line class="st0" x1="40.8" y1="67.1" x2="49.2" y2="84.6"/>
    <line class="st0" x1="55.3" y1="19.1" x2="69.4" y2="24.5"/>
    <line class="st0" x1="54.6" y1="81.4" x2="69.2" y2="75.2"/>
    <line class="st0" x1="45" y1="55.3" x2="49.2" y2="60.9"/>
    <line class="st0" x1="72.7" y1="32.1" x2="67.7" y2="46.7"/>
    <line class="st0" x1="72.6" y1="67.3" x2="67.8" y2="55.8"/>
  </g>
  <g>
    <path class="st1" d="M44.2,16.7c0-2.8,2.2-5,5-5s5,2.2,5,5-2.2,5-5,5-5-2.2-5-5Z"/>
    <path class="st1" d="M44.2,83.7c0-2.8,2.2-5,5-5s5,2.2,5,5-2.2,5-5,5-5-2.2-5-5Z"/>
    <path class="st1" d="M69.9,26.7c0-2.8,2.2-5,5-5s5,2.2,5,5-2.2,5-5,5-5-2.2-5-5Z"/>
    <path class="st1" d="M69.9,72.7c0-2.8,2.2-5,5-5s5,2.2,5,5-2.2,5-5,5-5-2.2-5-5Z"/>
    <circle class="st1" cx="65.8" cy="51.2" r="4.1"/>
    <circle class="st1" cx="57.7" cy="33.2" r="3.5"/>
    <circle class="st1" cx="51.5" cy="63.5" r="2.7"/>
  </g>
  <path class="st3" d="M36.4,50.5c0-2.9,2.4-5.3,5.3-5.3s5.3,2.4,5.3,5.3-2.4,5.3-5.3,5.3-5.3-2.4-5.3-5.3Z"/>
  <path class="st3" d="M33.7,62.2c0-2.5,2-4.5,4.5-4.5s4.5,2,4.5,4.5-2,4.5-4.5,4.5-4.5-2-4.5-4.5Z"/>
  <path class="st3" d="M33.7,38.2c0-2.5,2-4.5,4.5-4.5s4.5,2,4.5,4.5-2,4.5-4.5,4.5-4.5-2-4.5-4.5Z"/>
  <path class="st3" d="M27.3,71.2c0-2.2,1.8-4.1,4.1-4.1s4.1,1.8,4.1,4.1-1.8,4.1-4.1,4.1-4.1-1.8-4.1-4.1Z"/>
  <circle class="st3" cx="31" cy="29.6" r="4.1" transform="translate(-.9 .9) rotate(-1.7)"/>
  <path class="st2" d="M19.7,77.1c0-2,1.6-3.7,3.7-3.7s3.7,1.6,3.7,3.7-1.6,3.7-3.7,3.7-3.7-1.6-3.7-3.7Z"/>
  <path class="st3" d="M19.7,23.7c0-2,1.6-3.7,3.7-3.7s3.7,1.6,3.7,3.7-1.6,3.7-3.7,3.7-3.7-1.6-3.7-3.7Z"/>
  <path class="st3" d="M12.7,83.4c0-1.7,1.4-3.2,3.2-3.2s3.2,1.4,3.2,3.2-1.4,3.2-3.2,3.2-3.2-1.4-3.2-3.2Z"/>
  <path class="st3" d="M12.7,17.1c0-1.7,1.4-3.2,3.2-3.2s3.2,1.4,3.2,3.2-1.4,3.2-3.2,3.2-3.2-1.4-3.2-3.2Z"/>
  <path class="st3" d="M7,90.5c0-1.6,1.3-2.8,2.8-2.8s2.8,1.3,2.8,2.8-1.3,2.8-2.8,2.8-2.8-1.3-2.8-2.8Z"/>
  <path class="st3" d="M7,10.2c0-1.6,1.3-2.8,2.8-2.8s2.8,1.3,2.8,2.8-1.3,2.8-2.8,2.8-2.8-1.3-2.8-2.8Z"/>
  <path class="st3" d="M3.7,97.6c0-1.3,1.1-2.4,2.4-2.4s2.4,1.1,2.4,2.4-1.1,2.4-2.4,2.4-2.4-1.1-2.4-2.4Z"/>
  <path class="st3" d="M3.7,2.4c0-1.3,1.1-2.4,2.4-2.4s2.4,1.1,2.4,2.4-1.1,2.4-2.4,2.4-2.4-1.1-2.4-2.4Z"/>
  <path class="st2" d="M10.6,49.5c0,2.9-2.4,5.3-5.3,5.3s-5.3-2.4-5.3-5.3,2.4-5.3,5.3-5.3,5.3,2.4,5.3,5.3Z"/>
  <path class="st2" d="M13.2,37.8c0,2.5-2,4.5-4.5,4.5s-4.5-2-4.5-4.5,2-4.5,4.5-4.5,4.5,2,4.5,4.5Z"/>
  <path class="st2" d="M13.2,61.8c0,2.5-2,4.5-4.5,4.5s-4.5-2-4.5-4.5,2-4.5,4.5-4.5,4.5,2,4.5,4.5Z"/>
  <path class="st2" d="M19.6,28.8c0,2.2-1.8,4.1-4.1,4.1s-4.1-1.8-4.1-4.1,1.8-4.1,4.1-4.1,4.1,1.8,4.1,4.1Z"/>
  <circle class="st2" cx="15.9" cy="70.4" r="4.1"/>
  <circle class="st2" cx="31.1" cy="16.6" r="3.2" transform="translate(9.8 44.6) rotate(-80.8)"/>
  <circle class="st2" cx="31.1" cy="82.9" r="3.2" transform="translate(-55.7 100.3) rotate(-80.8)"/>
  <path class="st2" d="M39.9,9.5c0,1.6-1.3,2.8-2.8,2.8s-2.8-1.3-2.8-2.8,1.3-2.8,2.8-2.8,2.8,1.3,2.8,2.8Z"/>
  <path class="st2" d="M39.9,89.8c0,1.6-1.3,2.8-2.8,2.8s-2.8-1.3-2.8-2.8,1.3-2.8,2.8-2.8,2.8,1.3,2.8,2.8Z"/>
  <path class="st2" d="M43.2,2.4c0,1.3-1.1,2.4-2.4,2.4s-2.4-1.1-2.4-2.4,1.1-2.4,2.4-2.4,2.4,1.1,2.4,2.4Z"/>
  <path class="st2" d="M43.2,97.6c0,1.3-1.1,2.4-2.4,2.4s-2.4-1.1-2.4-2.4,1.1-2.4,2.4-2.4,2.4,1.1,2.4,2.4Z"/>
</svg>